<?xml version="1.0" encoding="UTF-8"?>
<svg id="Layer_2" data-name="Layer 2" xmlns="http://www.w3.org/2000/svg" viewBox="0 0 633.89 291.06">
  <defs>
    <style>
      .cls-1 {
        fill: #837c75;
      }

      .cls-2 {
        fill: #b0925e;
      }
    </style>
  </defs>
  <g id="Layer_1-2" data-name="Layer 1">
    <g>
      <path class="cls-1" d="M428,272.06c-2.61.72-14.07.64-14.52-.1-.33-.53.09-.96.93-.96,3.16,0,3.59-3.75,3.59-31.45v-27.58l-6.5-3.96h6.26s6.25-.01,6.25-.01l11.75,14.92c6.46,8.2,15.28,19.45,19.61,25,4.33,5.54,8.26,10.08,8.75,10.08,1.01,0,1.19-33.79.22-41.86-.57-4.78-.98-5.51-3.74-6.71-2.92-1.27-2.61-1.35,5.4-1.39l8.5-.03-6.5,3.96v30.52c0,20.56-.34,30.51-1.05,30.51-1.29,0-4.09-2.89-10.18-10.55-12.85-16.15-15.93-20.07-24.24-30.83-4.94-6.39-9.33-11.62-9.75-11.62s-.78,11.05-.78,24.55v24.55l3.25,1.41c1.79.78,3.03,1.47,2.75,1.55ZM526.25,267.1l-.78,5.4-16.73.27c-9.21.15-16.74.04-16.74-.25s.9-1.42,2-2.52c1.87-1.87,2-3.33,2-23s-.13-21.13-2-23l-2-2h31.8l.36,4.5c.19,2.47.01,4.5-.4,4.5s-.76-.47-.76-1.05-1.1-2.15-2.45-3.5c-2.21-2.2-3.29-2.45-10.54-2.45h-8.08l.29,10.75.28,10.75h7c6.3,0,7.1-.22,7.99-2.25,1.66-3.79,2.51-2.53,2.51,3.75s-1.28,7.99-2.41,3.5c-.6-2.39-.96-2.5-8.11-2.5h-7.48v22h8.93c9.67,0,10.71-.47,13.67-6.19,2.1-4.07,2.57-3.14,1.65,3.29ZM569.4,271.17c-1.6.92-4.93,1.9-7.4,2.17-4.46.49-14.92-.92-16.13-2.18-.93-.97-1.7-11.16-.84-11.16.4,0,1.29,1.36,1.98,3.02,2.03,4.9,6.47,7.98,11.5,7.98,6.02,0,9.12-1.39,10.94-4.91,3.67-7.1,1.59-10.33-10.93-16.92-9.97-5.24-13.52-9.17-13.52-14.95,0-8.84,7.53-13.75,20.01-13.05,8.09.46,8.95,1.19,8.97,7.58.02,4.53-1.38,5.73-2.34,2-1.08-4.22-5.38-7.75-9.43-7.75-9.03.01-14.8,7.02-10.54,12.8,1.1,1.48,6.19,4.95,11.31,7.7,11.09,5.96,13.52,8.74,13.52,15.5,0,5.45-2.31,9.4-7.1,12.17ZM620.41,272.15c-.72,1.16-15.15,1.09-15.87-.08-.31-.51.45-1.07,1.7-1.25,2-.28,2.34-1.08,2.96-6.82.39-3.58.69-14.04.67-23.25l-.04-16.75h-4.67c-6.16.03-9.38,1.79-10.52,5.76-1.41,4.93-2.64,3.88-2.64-2.26v-5.5h40.88l.65,4.38c.37,2.41.47,5.23.24,6.25-.36,1.54-.67,1.34-1.79-1.13-2.72-5.99-4.86-7.5-10.65-7.5h-5.33v45.04l2.47,1.13c1.36.62,2.23,1.51,1.94,1.98ZM187.43,232c-1.74,0-4.35.93-5.8,2.07-2.69,2.12-3.64,1.42-1.38-1.02,1-1.07,1-1.2,0-.64-.69.39-1.25.3-1.25-.19,0-2.6,10.78-4.3,14-2.22,1.16.75,1.19.97.14.98-.87.01-1.12.64-.69,1.77.54,1.4.42,1.5-.59.5-.69-.69-2.68-1.25-4.43-1.25ZM253.76,225.25c-4.4,3.24-4.76,3.31-4.76.99,0-1,1.87-2.88,4.37-4.4,3.61-2.18,4.35-2.35,4.25-.99-.07.91-1.8,2.89-3.86,4.4ZM133.85,245.43c-1.16,2.54-1.99,3.09-3.07,2.01-.71-.7,1.41-6.44,2.38-6.44,1.52,0,1.82,1.95.69,4.43ZM151.17,210.6c-.41,2.37-3.17,5.46-3.17,3.56,0-.71-.44-1.01-.98-.67-.54.33-.2-.76.75-2.44,1.86-3.27,3.94-3.54,3.4-.45ZM226.46,275.38c-.89.34-1.82.62-2.07.62-.74,0-2.48-5.24-1.92-5.81.29-.29.53.03.53.7s.39.99.87.69c.47-.29,1.62.3,2.54,1.32,1.54,1.7,1.54,1.9.05,2.48ZM243.91,40.4c.95,1.14.68,1.37-1.45,1.25-2.81-.16-3.46-.5-3.46-1.82s3.66-.94,4.91.57ZM357,171.07c0,1.52-2.74,1.05-3.36-.57-.45-1.18.22-1.48,3.14-1.38,2.05.06,2.93.32,1.97.57s-1.75.87-1.75,1.38ZM238.67,99.5c0,1.53-1.8,2.03-3,.83-1.24-1.23-.68-2.33,1.16-2.33,1.01,0,1.84.67,1.84,1.5ZM350.33,273.93c-.64.04-1.88.34-2.75.68-1.04.4-1.58.05-1.58-1,0-1.78.55-1.88,3.5-.61,1.1.47,1.47.89.83.93ZM442.5,103c-.34.55-1.24,1-2,1s-1.66-.45-2-1c-.35-.57.51-1,2-1s2.35.43,2,1ZM303.77,109.81c.24.71-.56,1.16-1.94,1.11-1.28-.04-1.76-.31-1.07-.58.69-.28.96-.98.61-1.56-.36-.58-.06-.84.68-.6.73.25,1.5.98,1.72,1.63Z"/>
      <path class="cls-2" d="M238.67,99.5c0-.64-.49-1.18-1.18-1.4.72-.13,1.62-.23,2.69-.3,2.93-.16,5.27-.75,5.22-1.3-.06-.55-2.86-2.58-6.22-4.5-13.09-7.49-15.37-11.64-3.44-6.26,8.14,3.68,14.19,5.66,14.95,4.9.31-.31-2.98-4.36-7.31-8.99-7.28-7.79-18.34-24.02-17.17-25.19,1.18-1.18,4.01,1.07,6.33,5.01,2.44,4.18,6.16,8.24,6.8,7.44.18-.23,0-4.46-.41-9.41-.51-6.24-.4-9.21.37-9.68,1.81-1.12,2.4-.13,3.1,5.16.37,2.76,1.1,5.02,1.63,5.02s.97-.67.97-1.5c0-1.81,2.9-2.02,3.45-.25.21.69.63,2.38.92,3.75.56,2.57,7.95,11,9.65,11,1.32,0,.08-8.73-1.85-13-.87-1.92-5.31-7.07-9.87-11.43-3.02-2.88-5.67-5.58-7.12-7.21.52.15,1.26.23,2.28.29,1.48.08,2.06,0,1.96-.45.85.67,1.74,1.47,2.62,2.38,7.17,7.36,7.62,7.4,10.52,1.08,2.28-4.99,2.39-5.83,1.27-10.02-.68-2.52-.88-4.93-.45-5.36,1.33-1.33,3.42,2.64,4.14,7.85.37,2.73.97,4.83,1.33,4.66,7.34-3.47,13.45-7.32,14.74-9.29,1.71-2.6,3.98-3.29,4.61-1.4.24.73,3.2.26,8.83-1.41,10.72-3.17,10.83-3.19,26.87-5.64,14.45-2.21,22.73-2.65,20.02-1.06-1.39.81-6.72,1.95-28.67,6.15-8.06,1.54-6.23,2.74,2,1.32,13.53-2.34,29.19-3.56,48.25-3.76l19-.2,9,3.86c4.95,2.13,10.11,3.86,11.46,3.85,1.51-.02,4.33,1.67,7.35,4.38,2.7,2.43,5.25,4.41,5.66,4.41s1.94-1.19,3.39-2.64c2.15-2.14,2.64-3.56,2.64-7.62,0-4.91.05-4.98,2.75-4.46,2.33.45,3.16-.06,5.49-3.37,1.51-2.15,3.45-3.91,4.32-3.91s2.73-1.38,4.16-3.08c1.7-2.02,3.22-2.91,4.43-2.59,1.02.27,1.85.19,1.85-.17.01-.36,1.12-2.01,2.48-3.66,2.04-2.48,2.64-2.74,3.44-1.53.78,1.18,1.17.91,2.05-1.38,1.89-4.98,5.03-8.59,7.47-8.59,1.87,0,2.53.83,3.56,4.5,1.43,5.13.85,10.56-1.54,14.2-1.49,2.28-10.09,7.01-11.03,6.06-.22-.22,1.84-2.55,4.58-5.18,4.44-4.25,4.99-5.23,4.96-8.93-.04-4.11-.06-4.13-1.75-1.96-.95,1.2-2.84,4.05-4.22,6.32-2.92,4.83-6.75,9.06-12.93,14.26l-4.43,3.73,4.93-.02c2.71,0,5.6-.45,6.43-.98,1.28-.83,1.25-.97-.25-.98-.96,0-1.75-.37-1.75-.81,0-.84,11.24-6.31,11.81-5.74,1,1.01-3.4,6.83-7.83,10.36-6.81,5.42-13.53,7.59-20.92,6.76-5.33-.61-5.95-.45-9.03,2.24-2.11,1.84-3.04,3.35-2.54,4.15.42.68,1.05,4.67,1.39,8.85l.62,7.61,7.82-9.22c4.3-5.07,8.24-9.22,8.75-9.22,3.14,0-3.02,10.46-12.71,21.57-4.28,4.91-7.55,7.31-17.07,12.5-14.75,8.05-20.62,10.58-30.2,13.04-9.8,2.52-30.61,4.84-44.59,4.98-6.05.06-12.09.41-13.41.78-1.36.38-4.86-.05-8-.98-19.17-5.69-24.42-7.46-31.59-10.66-4.4-1.96-10.16-4.89-12.8-6.51-4.98-3.07-6.19-3.15-5.12-.37,1.72,4.47,14.36,11.26,29.92,16.07,4.95,1.52,12.38,4.04,16.5,5.59,9.45,3.55,17.72,5.63,25.89,6.52,7.74.85,41.89-.65,35.11-1.54l-4.5-.58,5.83-.83c4.04-.58,5.5-1.15,4.78-1.87-.73-.73-2.81-.61-6.83.37-7.2,1.77-34.33,1.78-42.51.02-5.23-1.13-7.69-2.52-6.52-3.69.25-.25,5.85.04,12.44.64,8.67.79,14.69.79,21.78,0,24.02-2.67,43.15-8.83,55.08-17.71,1.67-1.25,8.03-4.76,14.12-7.81,10.28-5.14,11.11-5.77,11.61-8.84.78-4.81,4.71-12.69,6.33-12.69,1.77,0,1.75.97-.2,7.67-.88,3.01-1.44,5.62-1.25,5.8s3.7-1.66,7.82-4.07c4.11-2.42,8.34-4.4,9.4-4.4,1.85,0,1.86.08.16,1.96-.97,1.07-5.6,4.53-10.28,7.67-6.56,4.41-9.31,7-11.98,11.3-1.91,3.06-4.33,6.79-5.38,8.28-4.49,6.4-1.43,5.02,9.87-4.46,17.54-14.71,24.34-16.25,9.33-2.13-5.92,5.57-9.01,9.18-8.65,10.11.31.82-1,3.26-3.02,5.61l-3.57,4.16,6.82.53c.88.07,1.64.13,2.29.19-.48.18-.67.46-.47.78.29.47,1,.87,1.68.98-1.66.57-4.46,1.23-6.77,1.57-3.49.51-8.51,2.86-17.34,8.09-11.13,6.6-12.07,7.36-9,7.34,1.89-.02,5.41-.49,7.84-1.05,2.78-.64,4.76-.66,5.36-.06,2.37,2.37-7.7,4.65-27.47,6.22-11.69.93-14.69,1.49-16.41,3.06-1.16,1.06-5.84,2.82-10.4,3.91-10.35,2.47-25.42,3.68-26.39,2.11-.4-.66.25-1.29,1.61-1.55,1.26-.24,6.68-1.2,12.05-2.13,11.31-1.98,14.47-4.07,4.62-3.07-3.51.36-9.08,1.07-12.38,1.58-26.17,4.06-36.92,3.99-45.71-.31-4.03-1.97-7.06-2.7-11.39-2.72-3.24-.02-11.3-.68-17.9-1.48-6.6-.8-12.29-1.46-12.64-1.47-.36,0-.91-.7-1.22-1.52-.5-1.3.76-1.42,9.39-.85,5.48.36,9.97.4,9.97.09s-2.12-1.59-4.72-2.85c-2.59-1.25-8.49-5.13-13.11-8.61-10.46-7.89-10.88-8.11-17.27-9.03-1.09-.16-2.03-.34-2.81-.53.35-.26.58-.67.58-1.22ZM226.46,275.38c1.47-.57,1.49-.77.02-2.4,1.56,1.24,4.6,1.32,7.72.13,2.71-1.02,12.8-9.86,12.8-11.2,0-1.88-10.51-.94-15.04,1.34-5.04,2.54-7.81,6.83-5.99,9.21-.82-.74-1.7-1.13-2.1-.88-.48.3-.87-.01-.87-.69,0-.53-.15-.84-.36-.8.13-.76.37-1.57.73-2.43,2.68-6.41,6.97-8.45,20.13-9.57l7-.59,3.3-6.5c2.06-4.08,3.18-7.61,3-9.5-.26-2.59-.75-3.04-3.6-3.32-1.94-.18-5.17.6-7.87,1.9-6.21,3.01-18.03,15.13-24.86,25.51-5.86,8.89-7.66,10.41-10.36,8.72-2.59-1.63-2.42-4.62.76-12.79,1.64-4.22,2.45-7.44,1.8-7.16-10.3,4.56-13.77,5.6-18.72,5.62-5.05.02-5.87.35-9,3.6-1.9,1.96-6.15,5.08-9.45,6.92-16.79,9.36-28.14,2.14-23.41-14.88,1.92-6.93,15.85-19.62,21.53-19.62,1.23,0,3.06-1.05,4.08-2.34.42-.54.85-1.02,1.3-1.46v.02c0,.49.56.58,1.25.19,1-.56,1-.43,0,.64-2.06,2.22-1.45,3,.71,1.52-2.85,2.68-4.35,7.32-4.07,13.26.06,1.28,1.46,3.67,3.1,5.32,4.24,4.23,6.85,3.56,10.22-2.65,4.91-9.05,4.6-16.57-.35-18.18.88.23,1.63.56,2,.93,1.01,1,1.13.9.59-.5-.43-1.13-.18-1.76.69-1.77.51,0,.77-.06.76-.2.86.77,1.52,1.82,2.1,3.21,1.68,4.06.7,10.69-2.52,17.04-1.4,2.78-2.33,5.41-2.06,5.85.7,1.12,10.32-.32,14.89-2.23,6.42-2.69,9.33-5.78,14.24-15.15,15.87-30.24,42.97-59.57,61.57-66.64,6.46-2.45,14.02-2.47,16.23-.03,5.58,6.17-3.64,21.37-22.14,36.49-4.36,3.57-13.57,10.03-22.32,15.84,2-1.5,3.67-3.42,3.73-4.31.08-1.06-.35-1.19-2.25-.16,2.27-1.48,4.8-3.14,7.63-4.99,9.15-5.98,23.56-19.22,28.59-26.28,3.75-5.25,4.77-7.53,4.83-10.79l.08-4.13-4.78-.31c-4.01-.25-5.71.27-10.62,3.25-6.31,3.83-19.21,16.42-26.69,26.06-7.35,9.47-18.41,26.28-18.41,27.99v.08c0,.31,0,.56.12.68.49.5,2.92-.93,14.9-8.73-1.23,1.05-2.02,2.07-2.02,2.72,0,1.25.1,1.8.88,1.55-6.25,4.06-11.8,7.48-14.53,8.82-4.56,2.24-5.44,3.2-7.75,8.52-1.43,3.3-2.6,6.52-2.6,7.15s2.14-.9,4.75-3.4c10.91-10.44,19-14.58,26.48-13.58,6.29.85,8.11,3.59,7.44,11.19-.3,3.3-.84,7.25-1.22,8.76-.64,2.56-.47,2.75,2.47,2.75,5.26,0,18.08-7.46,18.08-10.52,0-.78,2.69-6.72,5.98-13.2,15.43-30.38,46.25-61.09,64.71-64.79-.23.22-.23.55-.05,1.01.62,1.62,3.36,2.09,3.36.57,0-.51.79-1.13,1.75-1.38.22-.06.35-.12.38-.17,3.41.9,5.87,3.53,5.85,6.8-.08,10.89-16.62,28.44-44.31,47.01-7.25,4.85-15.26,9.72-17.81,10.82-4.33,1.87-4.91,2.58-8.65,10.68-7.93,17.16-9.09,24.05-4.76,28.13,2.3,2.15,2.77,2.22,7.25,1.1,5.08-1.27,11.64-5.04,19.69-11.32,4.73-3.69,10.61-10.22,10.61-11.77,0-1.92,12.1-12.36,17.4-15.01,6.24-3.12,13.88-3.95,17.67-1.92,4.03,2.16,1.77,8.9-4.86,14.45-3.6,3.02-16.36,8.42-20.01,8.48-1.67.02-2.7.99-3.75,3.5-2.08,4.97-1.8,7.85,1.02,10.5,2.16,2.03,3.17,2.25,8.27,1.79,5.94-.54,17.78-5.64,25.89-11.16,5.15-3.5,6.4-3.28,2.81.48-4.26,4.47-12.68,8.87-20.83,11.6-.11-.17-.5-.42-1.11-.68-2.95-1.27-3.5-1.17-3.5.61,0,.94.44,1.32,1.27,1.1-5.71,1.6-10.99,2.23-14.2,1.31-5.65-1.62-9.07-5.66-9.07-10.71,0-2.37-.25-4.31-.55-4.31s-3.61,2.47-7.34,5.48c-11.67,9.43-23.49,13.44-29.88,10.14-5.15-2.67-6.23-5.13-6.23-14.26v-8.2l-4.58,2.43c-2.51,1.34-4.96,2.2-5.43,1.91s-1.1-.13-1.41.37c-.3.49-2.58,1.2-5.06,1.58-3.7.55-5.49,1.65-10,6.16-3.08,3.08-7.79,6.51-10.75,7.83-7.78,3.45-14.42,3.69-17.81,1.44.4-.11.96-.3,1.5-.5ZM133.85,245.43c1.13-2.48.83-4.43-.69-4.43-.12,0-.25.09-.4.24,4.01-8.8,9.47-19.71,14.02-28.01-.06.29.02.4.24.26.54-.34.98-.04.98.67,0,1.9,2.76-1.19,3.17-3.56.43-2.47-.81-2.79-2.27-1.16.5-.86.97-1.68,1.43-2.44,17.97-30.13,36.74-44.83,54.16-42.43,3.97.54,5.79,1.47,8.82,4.51,3.14,3.13,3.77,4.41,3.51,7.12-.24,2.52-.79,3.3-2.3,3.3s-2.13-.88-2.59-3.7c-.76-4.69-2.21-6.41-6.63-7.87-8.86-2.92-20.33,1.95-31.81,13.51-15.95,16.05-29.72,40.02-45.99,80.06-7.44,18.29-8.34,20-10.57,20h-2.43l.08-23.5c.09-25.05,3.28-63.31,6.02-72.25.29-.96.1-1.75-.43-1.75s-3.55,4.61-6.71,10.25c-9.29,16.54-25.21,42.8-29.55,48.75-2.21,3.03-4.83,6.74-5.81,8.27-.99,1.52-5.58,7.06-10.2,12.31-11.73,13.34-25.32,23.11-36.14,25.99-18.02,4.8-31.76-2.36-31.76-16.55,0-9.38,4.87-17.09,14.29-22.61,4.15-2.43,6.96-3.42,9.1-3.2,3.08.3,3.06.33-2.17,3.08-16.72,8.78-22,29.19-9.24,35.7,7.85,4.01,19.84,1.91,32.29-5.66,10.21-6.2,25.04-21.44,35.53-36.52,3.43-4.93,16.19-24.75,18.2-28.26,10.82-18.95,14.87-26.12,21.47-38.07,9.12-16.5,11.95-20.48,14.58-20.48,2.43,0,2.43.71,0,6.88-2.31,5.86-4.27,19.68-6.98,49.12-2.78,30.35-3.61,46.45-2.34,45.67.57-.35,2.52-4.36,4.34-8.91.51-1.28,1.11-2.7,1.78-4.24-.23.93-.3,1.69-.07,1.92,1.08,1.08,1.91.53,3.07-2.01ZM302,230.13c0,.52,1.01.41,2.25-.23,32.02-16.73,64.75-49.85,56.24-56.91-5.72-4.75-24.11,8.39-38.48,27.51-8.38,11.16-20.01,28.37-20.01,29.63ZM306.22,91.55c11.44,3.71,34.49,2.95,52.03-1.71,7.71-2.05,11.15-4.42,4-2.76-5.74,1.33-53.02,1.34-57.75.01-4.21-1.18-9.21-4.71-8.17-5.75.34-.34,3.35.15,6.68,1.08,5.6,1.57,18.54,2.36,19.7,1.21.27-.28-1.24-.81-3.36-1.19-8.55-1.54-27.3-7.83-34.56-11.61-9.75-5.07-16.79-11.44-16.79-15.19,0-4.4,3.63-10.25,8.56-13.79,5.23-3.75,4.49-4.95-1.24-2-4.65,2.4-9.85,7.8-10.63,11.04-1.66,6.87,6.28,17.9,17.37,24.15,3.27,1.83,5.94,3.76,5.94,4.28,0,1,2.37,3.27,7.72,7.39,1.78,1.37,6.5,3.55,10.5,4.84ZM303,124c3.58.48,14.38.68,24,.46,14.52-.34,19.14-.83,27.16-2.9,12.17-3.15,20.95-6.14,27.34-9.33,6.93-3.45,19.53-11.99,22.32-15.13,3.51-3.94,8.43-11.18,7.94-11.68-.55-.54-6.02,3.65-15.68,12.01-7.77,6.72-22.19,14.85-32.59,18.37-20.77,7.03-50.21,7.76-73.6,1.82-13.16-3.33-27.21-10.57-32.99-16.99-1.43-1.59-3.1-2.72-3.69-2.51-1.25.44,4.74,7.11,9.85,10.99,8.74,6.62,25.99,13.05,39.94,14.89ZM341.33,76.11l-.64,3.21,8.9-.6c10.25-.68,18.43-2.29,20.9-4.09,2.23-1.63,3.15-9.67,1.55-13.53-2.77-6.68-13.52-6.37-21.58.63-3.34,2.9-8.44,10.94-9.13,14.38ZM314.48,77.53c3.31.72,8.8,1.35,12.2,1.39l6.18.08-.82-2.86c-1.24-4.32-2.51-6.28-6.71-10.34-6.56-6.35-14.34-8.4-20.26-5.34-3.33,1.72-4.07,3.31-4.07,8.67,0,3.64.31,4.1,3.73,5.53,2.05.86,6.44,2.15,9.75,2.87ZM159.93,270.41c2.93,3.54,11.62.54,19.74-6.82l4.67-4.22-4.1-2.93c-4.52-3.24-7.24-7.13-7.24-10.34,0-2.9-1.1-2.63-4.7,1.15-7.35,7.74-11.54,19.34-8.37,23.16ZM306,115.58c7.8,1.92,34.47,1.26,42.32-1.05,7.63-2.24,6.55-3.11-1.89-1.52-10.05,1.9-22.56.63-34.29-3.47-10.84-3.79-20.78-7.81-26.47-10.71-2.1-1.07-4.57-1.78-5.5-1.58-1.9.42,13.1,8.4,19.28,10.25.64.2,1.27.43,1.84.68-.12.12-.1.32.08.6.35.58.08,1.28-.61,1.56-.34.13-.4.27-.21.37-2.67-.4-6.61-1.55-10.61-3.24-7.78-3.27-9.51-3.1-3.94.38,4.94,3.09,11.55,5.64,20,7.73ZM329.95,62.07c2.44,1.61,5.18,2.93,6.08,2.93s4.19-1.82,7.31-4.06c4.37-3.13,5.66-4.64,5.66-6.63,0-4.48-5.44-6.75-10.14-4.24-1.46.79-3.37.73-7.01-.21-4.27-1.09-5.41-1.06-7.67.21-5.36,3.01-4.19,5.43,5.77,12ZM363,123.39c-6.24,2.01-2.7,1.93,12.51-.31,14.35-2.11,22.64-4.59,32.55-9.73,9.18-4.76,22.93-16.35,19.4-16.35-.3,0-4.1,2.64-8.44,5.86-8.41,6.25-23.77,13.6-30.77,14.72-4.73.75-5.79-.69-2-2.71,1.23-.66,1.74-1.37,1.12-1.58-.62-.21-3.76,1.16-7,3.04-3.23,1.88-7.45,3.91-9.37,4.51-1.92.61-5.53,1.75-8,2.55ZM338.08,251.75c-.94,1.84-.88,2.25.35,2.25,2.7,0,11.78-4.03,16.14-7.16,9.07-6.51,7.91-15.31-1.37-10.42-3.19,1.69-13.48,12.11-15.12,15.33ZM371,38.42c9.76,1.73,11.66,1.84,10.41.59-1.77-1.77-16.46-4.98-27.8-6.06-11.09-1.06-34.61-.36-34.61,1.03,0,.72,13.54,1.77,34,2.65,5.78.25,13.88,1.05,18,1.79ZM343,84c0,2.67,32.89-.73,39.08-4.04,2.17-1.16,10.55-8.96,9.63-8.96-.29,0-3.6,1.39-7.37,3.1-8.99,4.07-28.3,8.9-35.57,8.9-3.18,0-5.77.45-5.77,1ZM257.5,88.84c5.36,4.29,7.15,3.94,3.33-.66-1.28-1.55-4.09-5.94-6.24-9.75s-5.41-8.21-7.25-9.78l-3.34-2.85v5.05c0,4.57.4,5.47,4.25,9.52,2.34,2.45,6.5,6.27,9.25,8.47ZM376.03,89.24c-.05,1.38,11.3-4.27,19.46-9.7,8.88-5.91,16.53-13.46,16.48-16.27-.03-1.6-.2-1.58-1.75.25-3.14,3.69-18.61,15.57-26.44,20.31-4.25,2.57-7.74,5-7.75,5.41ZM272,52.22c0,1.32,1.99.86,2.08-.47.06-.97.19-.96.59.03.35.87,1.52.29,3.67-1.82,4.53-4.44,18.03-10.81,25.66-12.11,8.91-1.51,11.23-3.13,3.5-2.45-7.23.64-19.24,4.69-25.77,8.68-2.62,1.61-5.18,2.92-5.69,2.92-.99,0-4.04,3.94-4.04,5.22ZM411,96.05c0,1.69,10.08-8.12,13.68-13.32,1.44-2.07,2.3-4.08,1.91-4.47-1.03-1.03-7.73,2.89-8.99,5.24-.58,1.1-2.31,4.06-3.83,6.59-1.52,2.52-2.77,5.21-2.77,5.96ZM313,41.29c0,.67,3.89.79,11.25.37,6.19-.36,15.3-.66,20.25-.67,6.18,0,8.53-.32,7.5-.99-1.67-1.08-25.6-1.33-33.75-.35-2.89.34-5.25,1.08-5.25,1.64ZM277.36,83.55c6.79,2.96,7.77.89,1.36-2.87-2.36-1.38-6.46-4.83-9.11-7.66-5.18-5.54-6.62-5.87-4.63-1.06,1.49,3.6,7.99,9.68,12.38,11.59ZM406.53,62.5c-.61,1.75-.44,1.71,1.37-.34,1.14-1.29,2.56-4.15,3.15-6.36.98-3.61.83-4.38-1.5-7.9-1.42-2.15-3.25-3.9-4.06-3.9-1.97,0-1.89.62.63,4.7,2.12,3.42,2.26,8.45.41,13.8ZM381,34.45c9.43,2.9,12.96,3.05,7,.31-9.09-4.19-26-7.37-26-4.89,0,.48,2.59,1.19,5.75,1.57,3.16.39,9.13,1.74,13.25,3.01ZM402.15,57.75c-.44,2.33,1.81,1.27,2.41-1.13,1.21-4.82-5.4-13.62-10.23-13.62-1.29,0-.68,1.11,2.35,4.25,3.98,4.12,5.97,7.93,5.47,10.5ZM267.41,103.17c6.03,3.91,7.59,4.52,7.59,2.94,0-1.2-13.12-10.12-14.87-10.11-2.28,0,.63,2.86,7.28,7.17ZM379.45,46.05c4.29,1.92,5.55,2.25,5.55,1.47,0-2.65-22.58-8.45-25.73-6.61-1.45.84-1.1,1.03,1.93,1.06,5.04.04,13.35,1.9,18.25,4.08ZM434,27.6c0,.27,1.53-.74,3.4-2.23,2.99-2.38,3.87-5.37,1.59-5.37-.73,0-4.99,6.49-4.99,7.6ZM307,128c1.96,1.27,5.72,1.27,6.5,0,.38-.61-1.07-.99-3.69-.98-3.15.01-3.91.27-2.81.98ZM378,102c0,.55.9,1,2,1s2-.45,2-1-.9-1-2-1-2,.45-2,1ZM258.02,51.81c0,.72.43,1.03.98.69s.99-1.6.98-2.81c-.01-1.78-.19-1.91-.98-.69-.53.83-.98,2.09-.98,2.81ZM189.9,229.14c-2.24-.21-5.01.07-7.19.65,1.41-.54,2.98-.79,4.79-.79.89,0,1.68.04,2.4.14ZM222.57,272.03c.16.64.38,1.35.63,2-.33-.59-.55-1.26-.63-2ZM302.89,110.84c.65-.15,1-.48.91-.93.01.03.02.06.03.08.16.49-.19.76-.94.85ZM349.39,274.08c-.68.21-1.36.41-2.03.6.07-.02.15-.04.22-.07.54-.21,1.22-.41,1.81-.53ZM187.43,232h.12c-.23,0-.47.01-.7.03.2-.02.4-.03.58-.03Z"/>
      <path class="cls-2" d="M331.32,105.06c11.43.69,28.47.37,33.96-.98,4.02-.98,6.1-1.1,6.83-.37.72.72-.74,1.29-4.78,1.87l-5.83.83,4.5.58c3.77.5-5.1,1.18-15.05,1.54,2.5-.12,4.38-.29,5.05-.49,4.11-1.26.64-1.83-14.5-2.4-3.86-.15-7.23-.34-10.18-.58ZM364.73,94.97c-6.33,1.05-13.75,1.86-23.23,2.72-16.2,1.46-19.05,1.93-15,2.46,2.75.37,6.84.98,9.09,1.37.06.01.12.02.18.03-2.19-.1-4.52-.26-7.08-.5-6.59-.6-12.19-.89-12.44-.64-.79.8.08,1.69,2.34,2.53-2.07-.67-3.61-1.48-4.78-2.46-.8-.67-2.23-1.43-3.83-2.1,2.55.58,5.02.8,6.11.49,1.32-.37,7.36-.72,13.41-.78,10.41-.1,24.61-1.42,35.23-3.12ZM379.45,46.05c-4.9-2.18-13.21-4.04-18.25-4.08-3.03-.03-3.38-.22-1.93-1.06,3.15-1.84,25.73,3.96,25.73,6.61,0,.78-1.26.45-5.55-1.47ZM272,52.22c0-1.28,3.05-5.22,4.04-5.22.51,0,3.07-1.31,5.69-2.92,1.58-.96,3.46-1.92,5.53-2.84-4.21,2-7.43,4.21-8.42,6.1-1.07,2.04-1.02,2.07.76.6,2.45-2,9.59-5.29,15.98-7.6-6.77,2.6-14.12,6.57-17.24,9.62-2.15,2.11-3.32,2.69-3.67,1.82-.4-.99-.53-1-.59-.03-.09,1.33-2.08,1.79-2.08.47ZM406.53,62.5c1.85-5.35,1.71-10.38-.41-13.8-2.09-3.39-2.5-4.39-1.45-4.63-.83.26.01,1.4,3.78,5.84,1.13,1.33,1.57,2.14.98,1.8-.7-.39-.91.48-.61,2.51.43,2.91.55,2.99,1.82,1.26.3-.42.58-.88.81-1.33-.09.49-.23,1.03-.4,1.65-.59,2.21-2.01,5.07-3.15,6.36-1.81,2.05-1.98,2.09-1.37.34ZM461,4.5c-.35-1.27-.67-2.2-1-2.87.29.56.56,1.29.84,2.24,2.05,6.84.75,13.74-3.21,17.02-.98.82-1.44,2.14-1.1,3.21.35,1.1-.69,2.82-3.66,5.93,2.17-2.57,3.55-4.95,2.94-5.56-.54-.53-10.53,4.28-11.7,5.55.2-.54,1.05-1.23,2.49-1.88,2.15-.98,2.39-1.45,1.38-2.66-.67-.82-.83-1.48-.35-1.48.41,0,2.3-1.5,4.46-3.51-2.27,2.24-3.85,4.08-3.66,4.27.94.95,9.54-3.78,11.03-6.06,2.39-3.64,2.97-9.07,1.54-14.2ZM303.77,109.81c-.14-.42-.51-.87-.96-1.21,3.28,1.12,4.71,2.22,3.88,3.05-.65.64-3.51.03-16.19-3.45-1.73-.47-1.82-.33-.69,1.05,1.49,1.82,8.06,4.35,16.19,6.26,1.99.46,4.86.8,8.18,1.01-3.45-.18-6.34-.49-8.18-.94-8.45-2.09-15.06-4.64-20-7.73-5.57-3.48-3.84-3.65,3.94-.38,4,1.69,7.94,2.84,10.61,3.24.19.11.63.19,1.28.21.41,0,.77-.01,1.06-.08.75-.09,1.1-.36.94-.85,0-.02-.02-.05-.03-.08,0-.03-.02-.06-.03-.1ZM367.32,122.01c1.41-.45,2.74-.87,3.68-1.17,1.92-.6,6.14-2.63,9.37-4.51,3.24-1.88,6.38-3.25,7-3.04.62.21.11.92-1.12,1.58-2.52,1.34-2.9,2.43-1.48,2.79-3.76.18-8.54,1.17-11.21,2.32-2.6,1.11-5.34,2.02-6.08,2.02-.05,0-.1,0-.16.01ZM339.46,35.97c-12.68-.71-20.46-1.45-20.46-1.99,0-.75,6.91-1.31,15.01-1.48-.69.04-1.36.09-2.01.14-6.98.6-8.31.91-5.02,1.16,2.46.19,4.96.73,5.54,1.22.35.29,3.06.64,6.94.95ZM395.49,79.54c-.62.41-1.25.82-1.9,1.23.43-.28.85-.55,1.26-.82,4.21-2.79,9.45-7.17,11.65-9.74l4-4.66-4,2.39c-2.2,1.32-6.4,4.33-9.34,6.7-2.93,2.37-8.85,6.44-13.18,9.06,7.89-4.81,23.12-16.53,26.24-20.18,1.55-1.83,1.72-1.85,1.75-.25.05,2.81-7.6,10.36-16.48,16.27ZM359.81,89.4c.41-.19.68-.39.8-.57.28-.46-11.33-.79-25.8-.73-12.73.06-20.6-.03-25.82-.51,13.09.8,48.35.63,53.26-.51,6.65-1.54,4.14.4-2.44,2.32ZM270.25,258.55c.82.02,2.97-.79,5.17-1.96l4.58-2.43v8.2c0,3.23.13,5.62.54,7.49-.36-1.33-.54-2.83-.54-4.5,0-6.58-1.69-8.59-6.14-7.31-1.44.41-2.9.61-3.61.51ZM434,27.6c0-1.11,4.26-7.6,4.99-7.6,2.28,0,1.4,2.99-1.59,5.37-1.87,1.49-3.4,2.5-3.4,2.23ZM381,34.45c-4.12-1.27-10.09-2.62-13.25-3.01-3.16-.38-5.75-1.09-5.75-1.57,0-1.79,8.8-.63,17.12,1.73-4.2-1.12-8.25-1.72-10.62-1.43-2.31.29-1.19.79,4.88,2.2,4.33,1,9.51,2.42,11.5,3.16.2.07.4.14.6.21-1.29-.34-2.79-.77-4.48-1.29ZM343,84c0-.55,2.59-1,5.77-1,2.46,0,6.32-.56,10.68-1.45-4.64,1.08-8.7,2.05-9.95,2.41-2.36.66-2.08.83,2.14.92-5.04.22-8.64,0-8.64-.88ZM357.5,130.66c1.24-.31,2.15-.6,2.5-.81,1.74-1.08-8.22-.58-19.25.87,1.52-.23,3.11-.46,4.75-.72,3.3-.51,8.87-1.22,12.38-1.58,8.48-.86,7.32.57-.38,2.24ZM348.32,114.53c-.33.1-.69.19-1.09.28.39-.15.67-.31.84-.48.29-.29-1.95-.58-5.54-.75,1.33-.14,2.64-.33,3.9-.57,8.44-1.59,9.52-.72,1.89,1.52ZM307,128c-1.1-.71-.34-.97,2.81-.98,2.62,0,4.07.37,3.69.98-.78,1.27-4.54,1.27-6.5,0ZM293.21,105.02c-6.67-3.05-14.44-7.46-13.04-7.77.93-.2,3.4.51,5.5,1.58,1.81.92,4.03,1.95,6.58,3.05-4.19-1.69-7.85-2.84-8.48-2.62-1.02.35,4.19,3.33,9.44,5.76ZM363,123.39c.99-.32,2.17-.69,3.34-1.07-.39.21-.73.51-.94.83-.52.86,1.09.98,6.2.46.32-.04.65-.07.98-.11-12.72,1.82-15.4,1.77-9.58-.11ZM244.96,89.51c5.7,1.69,4.76-1-2.19-8.49-3.38-3.63-7.74-9.42-11.15-14.46,3.53,5.18,8.11,11.19,11.76,15.09,4.33,4.63,7.62,8.68,7.31,8.99-.42.43-2.53-.01-5.73-1.13ZM378,102c0-.55.9-1,2-1s2,.45,2,1-.9,1-2,1-2-.45-2-1ZM258.02,51.81c0-.72.45-1.98.98-2.81.79-1.22.97-1.09.98.69,0,1.21-.43,2.47-.98,2.81s-.99.03-.98-.69ZM303.41,106.37c2.79,1.06,5.72,2.12,8.73,3.17,5.03,1.76,10.2,3,15.27,3.69-5.54-.29-8.13-1.07-14.91-3.48-2.61-.92-5.87-2.14-9.09-3.38ZM326.25,93.9c7.35-.2,15.95-1.02,22.72-2.04-7.52,1.33-15.45,2.02-22.72,2.04ZM422.14,103.72c3.54-3.02,6.17-5.74,5.69-6.22-.37-.37-4.18,1.94-8.51,5.14,4.21-3.12,7.85-5.64,8.14-5.64,1.82,0-.95,3.08-5.32,6.72ZM398.35,114.29c6.84-2.89,14.77-7.15,20.15-11.04-6.21,4.51-13.47,8.43-20.15,11.04ZM302.72,96.29c-5.26-1.34-11.03-3.18-16.64-5.26,3.94,1.38,8.96,2.96,16.64,5.26ZM366.7,83.44c6.8-1.07,13.55-2.5,15.38-3.48-2.36,1.26-8.58,2.53-15.38,3.48ZM381.72,94.79c9.55-3.09,18-7.11,23.83-11.45-6.14,4.57-14.19,8.42-23.83,11.45ZM444.7,37.19c-4.26,2.89-8.46,4.33-13.13,4.53,4.51-.27,8.83-1.75,13.13-4.53ZM322.93,107.29c-5.66-1.14-11.52-2.88-17.93-5.28-1.23-.46-2.75-1.01-4.41-1.59,2.17.75,4.22,1.47,5.91,2.09,5.84,2.13,11.14,3.68,16.43,4.78ZM307.31,132.19c-2.81-.33-4.53-1.03-7.41-2.44-2.4-1.18-4.41-1.92-6.52-2.33,2.1.41,4.09,1.13,6.41,2.27,2.3,1.12,4.72,1.95,7.52,2.5ZM282.82,274.31c.87.85,1.98,1.57,3.41,2.31.72.37,1.51.65,2.37.84-2.36-.45-4.33-1.5-5.78-3.15ZM302.85,86.53c-2.03-.62-3.4-1.45-4.74-2.57-.17-.14-.33-.28-.47-.41,1.28,1.05,3.23,2.19,5.21,2.98ZM407.62,78.22c-1.24.73-2.57,1.48-4.01,2.26-3.64,1.99-6.92,3.71-9.99,5.22,3.03-1.52,6.49-3.35,10.67-5.63,1.2-.66,2.31-1.27,3.33-1.85ZM409.45,47.75c-1.49-1.96-3.24-3.71-4.08-3.75h.12c.79,0,2.56,1.67,3.96,3.75ZM390.61,36.72c.26-.3-.68-1.06-3.12-2.18-.3-.13-.61-.27-.92-.4.49.2.97.41,1.43.62,2.68,1.23,3.44,1.88,2.61,1.96ZM343.66,101.58c3.57-.21,7.82-.63,12.15-1.19-1.75.24-3.53.46-5.34.66-2.34.26-4.57.44-6.81.53ZM426.37,61.49c-1.87,2.51-3.61,4.63-5.4,6.52.13-.14.26-.29.39-.44,1.8-2.07,3.49-4.12,5.01-6.08ZM433.71,50.45c1.38-2.75,1.62-4.45.36-4.45,1.34,0,1.22,1.48-.36,4.45ZM273.62,85.9c-3.79-1.74-7.19-3.5-9.92-5.18,2.09,1.28,6.14,3.39,9.92,5.18ZM390.68,120.13c3.8-1.05,7.42-2.28,10.86-3.69-3.48,1.47-6.98,2.67-10.86,3.69ZM342.18,108.75c-4.6.07-8.67.02-10.93-.18,2.73.16,6.83.22,10.93.18ZM353.09,32.91c-.35-.03-.71-.07-1.06-.1.55.05,1.08.09,1.58.14,6.18.59,13.35,1.81,18.88,3.08-5.63-1.28-12.98-2.52-19.4-3.12ZM387.37,72.75c2.37-1.03,4.14-1.75,4.34-1.75.02,0,.03,0,.04.01-.32.07-2.03.76-4.38,1.74ZM340.08,134c-.55.31-.74.73-.48,1.17-.31-.51-.4-.83.48-1.17ZM424.73,41.35c-3.32-.2-4.2.3-6.67,2.46,2.54-2.22,3.41-2.7,6.67-2.46ZM393.59,80.77c-3.6,2.3-7.71,4.59-11.05,6.24,3.29-1.63,7.37-3.91,11.05-6.24ZM297.98,81.32c1.12.11,2.79.47,5.03,1.1-1.94-.54-3.77-.94-5.03-1.1ZM382.08,79.96c1.01-.54,3.6-2.73,5.86-4.81-2.23,2.06-4.8,4.24-5.86,4.81ZM444.14,30.52c.26.28.89.49,1.61.5-.9,0-1.43-.2-1.61-.5ZM301.35,108.14s-.05.03-.06.04c-.17-.07-.33-.14-.5-.21.19.06.38.11.56.17ZM454.37,1.52c1.05-.97,2.1-1.52,3.04-1.52-.95.01-2,.56-3.04,1.52Z"/>
    </g>
  </g>
</svg>